<svg xmlns="http://www.w3.org/2000/svg" viewBox="0 0 200 160" fill="none" stroke="currentColor" stroke-width="1.5" stroke-linecap="round" stroke-linejoin="round">
  <!-- Butler in front of empty bookshelf -->
  <!-- Bookshelf -->
  <rect x="30" y="15" width="140" height="130" rx="2" />
  <line x1="30" y1="50" x2="170" y2="50" />
  <line x1="30" y1="85" x2="170" y2="85" />
  <line x1="30" y1="120" x2="170" y2="120" />
  <!-- A few sparse books on shelves -->
  <rect x="40" y="52" width="8" height="32" rx="1" opacity="0.3" />
  <rect x="52" y="56" width="6" height="28" rx="1" opacity="0.3" />
  <rect x="150" y="87" width="10" height="31" rx="1" opacity="0.3" />
  <!-- Butler standing in front -->
  <!-- Head -->
  <circle cx="100" cy="70" r="11" />
  <!-- Top hat -->
  <path d="M89 63h22M91 63v-6h18v6" />
  <!-- Body -->
  <path d="M92 81v22q0 4 4 4h8q4 0 4-4V81" />
  <!-- Arms spread, gesturing at empty shelves -->
  <path d="M92 87q-12 -3-18 2" />
  <path d="M108 87q12 -3 18 2" />
  <!-- Legs -->
  <path d="M96 107v18M104 107v18" />
  <!-- Shoes -->
  <path d="M93 125h6M101 125h6" />
</svg>
