<svg xmlns="http://www.w3.org/2000/svg" viewBox="0 0 200 160" fill="none" stroke="currentColor" stroke-width="1.5" stroke-linecap="round" stroke-linejoin="round">
  <!-- Butler bowing politely -->
  <!-- Head (tilted forward) -->
  <circle cx="110" cy="50" r="12" />
  <!-- Top hat (tilted) -->
  <path d="M100 44h22M101 44l1-7h18l1 7" />
  <!-- Body (bent forward at waist) -->
  <path d="M98 60q8 8 15 20" />
  <path d="M108 62q5 8 10 18" />
  <!-- Jacket tails -->
  <path d="M98 60q-2 12 0 24" />
  <!-- Collar -->
  <path d="M103 61l4 3 4-3" />
  <!-- Right arm behind back -->
  <path d="M118 80q6-4 8-12" />
  <!-- Left arm extended gracefully -->
  <path d="M98 68q-12 2-18 8" />
  <!-- Hand gesture -->
  <path d="M78 76q-2 2-4 0" />
  <!-- Legs -->
  <path d="M104 88v24M114 86v26" />
  <!-- Shoes -->
  <path d="M100 112h8M110 112h8" />
</svg>
