<svg xmlns="http://www.w3.org/2000/svg" viewBox="0 0 200 160" fill="none" stroke="currentColor" stroke-width="1.5" stroke-linecap="round" stroke-linejoin="round">
  <!-- Butler with concerned expression -->
  <!-- Head -->
  <circle cx="100" cy="40" r="14" />
  <!-- Top hat -->
  <path d="M86 33h28M88 33v-8h24v8" />
  <!-- Concerned eyebrows (furrowed) -->
  <path d="M91 34q3-3 6 0" />
  <path d="M103 34q3-3 6 0" />
  <!-- Eyes -->
  <circle cx="95" cy="39" r="1.5" fill="currentColor" stroke="none" />
  <circle cx="105" cy="39" r="1.5" fill="currentColor" stroke="none" />
  <!-- Worried mouth -->
  <path d="M95 47q5-2 10 0" />
  <!-- Body -->
  <path d="M90 54v28q0 5 5 5h10q5 0 5-5V54" />
  <!-- Collar/bow tie -->
  <path d="M95 54l5 4 5-4" />
  <!-- Arms - hands clasped nervously -->
  <path d="M90 62q-8 5-5 15" />
  <path d="M110 62q8 5 5 15" />
  <!-- Sweat drop -->
  <path d="M116 32q2 4 0 6" fill="currentColor" opacity="0.4" />
  <!-- Legs -->
  <path d="M95 87v25M105 87v25" />
  <!-- Shoes -->
  <path d="M91 112h8M101 112h8" />
</svg>
