<svg xmlns="http://www.w3.org/2000/svg" viewBox="0 0 200 160" fill="none" stroke="currentColor" stroke-width="1.5" stroke-linecap="round" stroke-linejoin="round">
  <!-- Butler silhouette with empty tray -->
  <!-- Head -->
  <circle cx="100" cy="35" r="14" />
  <!-- Top hat -->
  <path d="M86 28h28M88 28v-8h24v8" />
  <!-- Body -->
  <path d="M88 49v30q0 6 6 6h12q6 0 6-6V49" />
  <!-- Collar/bow tie -->
  <path d="M95 49l5 5 5-5" />
  <!-- Left arm holding tray -->
  <path d="M88 55q-15 5-25 0" />
  <!-- Right arm holding tray -->
  <path d="M112 55q15 5 25 0" />
  <!-- Tray -->
  <ellipse cx="100" cy="58" rx="42" ry="4" />
  <!-- Tray dome (empty, dashed to show nothing) -->
  <path d="M70 54q30-20 60 0" stroke-dasharray="3 3" opacity="0.4" />
  <!-- Legs -->
  <path d="M94 85v28M106 85v28" />
  <!-- Shoes -->
  <path d="M90 113h8M102 113h8" />
</svg>
